<?xml version="1.0" encoding="utf-8"?>
<!-- Generator: Adobe Illustrator 23.0.5, SVG Export Plug-In . SVG Version: 6.00 Build 0)  -->
<svg version="1.1" id="Layer_1" xmlns="http://www.w3.org/2000/svg" xmlns:xlink="http://www.w3.org/1999/xlink" x="0px" y="0px"
	 viewBox="-10.919 -16.061 46.876 33.082" enable-background="new -10.919 -16.061 46.876 33.082" xml:space="preserve">
<rect x="-10.919" y="-16.061" display="none" fill="#161213" width="46.875" height="33.082"/>
<g>
	<path fill="#43AFFF" d="M22.794,0.421c0.011,0.058,0.004,0.107-0.023,0.149c-0.027,0.046-0.066,0.069-0.115,0.077
		c-0.318,0.038-0.643,0.088-0.975,0.153c-0.326,0.065-0.647,0.142-0.974,0.226c0.007,0.008,0.011,0.016,0.011,0.023
		c0.637,2.35-1.604,4.084-4.313,5.096c-2.636,0.984-5.613,1.258-6.845,0.897c-1.899-0.555,0.633-2.12,3.972-3.607
		c3.441-1.534,7.853-3.033,9.058-3.198c0.046-0.004,0.092,0.008,0.131,0.046C22.759,0.322,22.782,0.367,22.794,0.421L22.794,0.421z
		 M19.222,0.789c-0.004-0.004,0-0.004,0-0.007c-0.03-0.085-0.073-0.165-0.119-0.246c-0.126,0.008-0.249,0-0.368-0.02
		c-0.119-0.023-0.238-0.046-0.357-0.08c-0.187-0.054-0.337-0.165-0.444-0.333c-0.1-0.157-0.135-0.334-0.104-0.521
		c0.015-0.108,0.06-0.212,0.119-0.311c0.062-0.1,0.142-0.18,0.253-0.241c0,0,0-0.008,0.016-0.016
		c0.157-0.104,0.364-0.13,0.609-0.096c0.253,0.038,0.511,0.169,0.771,0.406c8.042-2.96-3.806-6.733-4.378-2.3
		c0.016-4.295,11.227-3.616,6.055,2.396c-0.139,0.165-0.276,0.322-0.438,0.449c-0.165,0.126-0.338,0.242-0.518,0.341
		c0.042,0.073,0.142,0.272,0.18,0.345c0,0,0,0.004,0.004,0.004C20.073,0.636,19.648,0.713,19.222,0.789L19.222,0.789z M19.445,1.433
		C-2.51,9.39,20.584,6.119,19.445,1.433L19.445,1.433z M17.48-3.079c0.084-0.303,0.216-0.518,0.276-0.717
		c0.065-0.199,0.077-0.322,0.035-0.376c-0.023-0.026-0.023-0.053,0.015-0.084c0.035-0.027,0.093-0.05,0.157-0.062
		c0.066-0.015,0.146-0.015,0.23-0.015c0.081,0.003,0.165,0.023,0.241,0.054c0.081,0.034,0.154,0.084,0.212,0.161
		c0.054,0.073,0.088,0.173,0.1,0.292c0.019,0.234-0.004,0.483-0.077,0.744c-0.077,0.26-0.173,0.529-0.295,0.805
		c-0.12,0.276-0.254,0.548-0.399,0.824c-0.146,0.28-0.279,0.548-0.406,0.809c-0.127,0.265-0.234,0.518-0.319,0.755
		c-0.084,0.242-0.111,0.46-0.114,0.66C17.135,1.285,16.571,0.195,17.48-3.079L17.48-3.079z"/>
	<path fill-rule="evenodd" clip-rule="evenodd" fill="#43AFFF" d="M23.58-0.181c0.296-0.046,0.607,0.088,0.691,0.299
		c0.089,0.207-0.084,0.41-0.383,0.452c-0.3,0.042-0.606-0.096-0.691-0.303C23.116,0.065,23.285-0.138,23.58-0.181L23.58-0.181z"/>
</g>
<g display="none">
	<path display="inline" fill="#43AFFF" d="M2.061,1.235v-2.492h0.816c0.293,0,0.522,0.057,0.686,0.172
		C3.728-0.971,3.81-0.801,3.81-0.574c0,0.114-0.029,0.216-0.089,0.306c-0.059,0.09-0.146,0.158-0.26,0.204
		c0.155,0.029,0.273,0.096,0.351,0.202C3.89,0.243,3.93,0.367,3.93,0.509c0,0.238-0.079,0.419-0.236,0.542
		c-0.157,0.123-0.38,0.184-0.669,0.184H2.061z M2.56-0.214h0.334c0.133,0,0.236-0.027,0.308-0.082S3.31-0.43,3.31-0.535
		c0-0.115-0.036-0.2-0.109-0.255C3.129-0.845,3.021-0.872,2.877-0.872H2.56V-0.214z M2.56,0.132v0.719h0.464
		c0.132,0,0.233-0.029,0.303-0.086c0.069-0.058,0.105-0.143,0.105-0.256c0-0.121-0.034-0.214-0.103-0.279
		C3.26,0.165,3.157,0.132,3.019,0.132H2.56z"/>
	<path display="inline" fill="#43AFFF" d="M5.718,0.139H4.794v0.712h1.099v0.383H4.295v-2.492H5.89v0.385H4.794v0.626h0.924V0.139z"
		/>
	<path display="inline" fill="#43AFFF" d="M7.124-0.109h0.01l0.544-1.148h0.548L7.372,0.358v0.876h-0.5V0.333l-0.84-1.59H6.58
		L7.124-0.109z"/>
	<path display="inline" fill="#43AFFF" d="M10.441,0.213c0,0.307-0.096,0.56-0.289,0.759C9.959,1.171,9.708,1.271,9.399,1.271
		c-0.308,0-0.558-0.1-0.75-0.3c-0.192-0.2-0.288-0.452-0.288-0.758v-0.448c0-0.305,0.096-0.557,0.287-0.757
		c0.191-0.201,0.44-0.301,0.747-0.301c0.31,0,0.561,0.1,0.755,0.301c0.194,0.2,0.291,0.453,0.291,0.757V0.213z M9.943-0.239
		c0-0.194-0.048-0.353-0.146-0.478C9.701-0.841,9.567-0.903,9.395-0.903c-0.169,0-0.3,0.062-0.395,0.186
		C8.907-0.592,8.86-0.433,8.86-0.239v0.452c0,0.198,0.047,0.358,0.142,0.483C9.096,0.82,9.229,0.882,9.399,0.882
		c0.171,0,0.305-0.062,0.401-0.187C9.895,0.571,9.943,0.41,9.943,0.213V-0.239z"/>
	<path display="inline" fill="#43AFFF" d="M12.852,1.235h-0.5l-1.005-1.681l-0.01,0.001v1.679h-0.5v-2.492h0.5l1.005,1.679
		l0.011-0.002v-1.677h0.5V1.235z"/>
	<path display="inline" fill="#43AFFF" d="M13.31,1.235v-2.492h0.87c0.305,0,0.556,0.097,0.752,0.292
		c0.198,0.194,0.297,0.444,0.297,0.748v0.413c0,0.306-0.099,0.556-0.297,0.749c-0.196,0.193-0.447,0.29-0.752,0.29H13.31z
		 M13.81-0.872v1.724h0.37c0.164,0,0.296-0.062,0.396-0.184c0.101-0.122,0.15-0.28,0.15-0.472V-0.22c0-0.19-0.05-0.347-0.15-0.469
		c-0.101-0.122-0.232-0.183-0.396-0.183H13.81z"/>
</g>
</svg>
